<svg width="70" height="70" viewBox="0 0 70 70" fill="none" xmlns="http://www.w3.org/2000/svg">
<path d="M39.4522 1.80643e-05C45.3 -0.00525766 51.0756 1.14512 56.3596 3.36758C61.6436 5.59005 66.3032 8.82878 70 12.8485L45.0307 35L70 57.1515C66.3032 61.1712 61.6436 64.41 56.3596 66.6324C51.0756 68.8549 45.3 70.0053 39.4522 70C17.6627 70 0 54.3305 0 35C0 15.6695 17.6627 1.80643e-05 39.4522 1.80643e-05ZM39.4522 7.00001C34.473 7.0008 29.5647 8.04667 25.1283 10.0522C20.6919 12.0577 16.8533 14.9659 13.9261 18.5392C10.9989 22.1125 9.06626 26.2495 8.28599 30.6122C7.50571 34.9748 7.89999 39.4394 9.4366 43.6411C10.9732 47.8427 13.6086 51.6622 17.1273 54.7875C20.6461 57.9128 24.9484 60.2551 29.6827 61.6232C34.417 62.9913 39.449 63.3463 44.3676 62.6591C49.2861 61.972 53.9516 60.2622 57.9829 57.6695L58.8035 57.12L33.8697 35L58.8035 12.8765L57.9829 12.3305C52.9282 9.07068 46.8926 7.22209 40.6476 7.02102L39.4522 7.00001ZM39.4522 10.5C41.0217 10.5 42.5269 11.0531 43.6367 12.0377C44.7465 13.0223 45.37 14.3576 45.37 15.75C45.37 17.1424 44.7465 18.4778 43.6367 19.4623C42.5269 20.4469 41.0217 21 39.4522 21C37.8827 21 36.3774 20.4469 35.2676 19.4623C34.1578 18.4778 33.5344 17.1424 33.5344 15.75C33.5344 14.3576 34.1578 13.0223 35.2676 12.0377C36.3774 11.0531 37.8827 10.5 39.4522 10.5Z" fill="#DB00FF"/>
</svg>
