<svg width="70" height="70" viewBox="0 0 70 70" fill="none" xmlns="http://www.w3.org/2000/svg">
<path d="M35 70C15.6695 70 0 54.3305 0 35C0 15.6695 15.6695 0 35 0C54.3305 0 70 15.6695 70 35C70 54.3305 54.3305 70 35 70ZM31.5 37.772V49H38.5V37.772C40.3424 36.9679 41.8518 35.554 42.7743 33.7679C43.6968 31.9818 43.9761 29.9326 43.5654 27.9648C43.1547 25.997 42.079 24.2306 40.5191 22.9626C38.9591 21.6947 37.0102 21.0025 35 21.0025C32.9898 21.0025 31.0409 21.6947 29.4809 22.9626C27.921 24.2306 26.8453 25.997 26.4346 27.9648C26.0239 29.9326 26.3032 31.9818 27.2257 33.7679C28.1482 35.554 29.6576 36.9679 31.5 37.772Z" fill="#DB00FF"/>
</svg>
