<svg width="70" height="70" viewBox="0 0 70 70" fill="none" xmlns="http://www.w3.org/2000/svg">
<path d="M35 70C15.6695 70 0 54.3305 0 35C0 15.6695 15.6695 0 35 0C54.3305 0 70 15.6695 70 35C70 54.3305 54.3305 70 35 70ZM35 63C42.4261 63 49.548 60.05 54.799 54.799C60.05 49.548 63 42.4261 63 35C63 27.5739 60.05 20.452 54.799 15.201C49.548 9.94999 42.4261 7 35 7C27.5739 7 20.452 9.94999 15.201 15.201C9.94999 20.452 7 27.5739 7 35C7 42.4261 9.94999 49.548 15.201 54.799C20.452 60.05 27.5739 63 35 63ZM31.5 37.772C29.6576 36.9679 28.1482 35.554 27.2257 33.7679C26.3032 31.9818 26.0239 29.9326 26.4346 27.9648C26.8453 25.997 27.921 24.2306 29.4809 22.9626C31.0409 21.6947 32.9898 21.0025 35 21.0025C37.0102 21.0025 38.9591 21.6947 40.5191 22.9626C42.079 24.2306 43.1547 25.997 43.5654 27.9648C43.9761 29.9326 43.6968 31.9818 42.7743 33.7679C41.8518 35.554 40.3424 36.9679 38.5 37.772V49H31.5V37.772Z" fill="#DB00FF"/>
</svg>
