<svg width="68" height="88" viewBox="0 0 68 88" fill="none" xmlns="http://www.w3.org/2000/svg">
<path d="M7.61664 0L66.2174 76.636C67.1319 77.8314 67.6459 79.4529 67.6462 81.1438C67.6465 82.8347 67.1331 84.4564 66.219 85.6524C65.3049 86.8483 64.065 87.5204 62.7719 87.5208C61.4789 87.5212 60.2387 86.8499 59.3241 85.6545L44.3871 66.1172L32.8951 81.141L19.5051 63.631V74.766C19.5051 75.8932 19.1627 76.9742 18.5532 77.7712C17.9437 78.5682 17.1171 79.016 16.2551 79.016C15.3932 79.016 14.5665 78.5682 13.957 77.7712C13.3475 76.9742 13.0051 75.8932 13.0051 74.766V57.766C13.0042 56.6828 12.687 55.6409 12.1184 54.8532C11.5497 54.0655 10.7725 53.5915 9.94561 53.528C9.11867 53.4645 8.30441 53.8164 7.66918 54.5116C7.03396 55.2069 6.62573 56.1931 6.52789 57.2688L6.50514 57.766V62.016C6.50514 63.1432 6.16273 64.2242 5.55324 65.0212C4.94374 65.8182 4.11709 66.266 3.25514 66.266C2.39319 66.266 1.56654 65.8182 0.957042 65.0212C0.347549 64.2242 0.00513928 63.1432 0.00513928 62.016V24.6755C-0.129871 15.8053 2.39979 7.21941 7.05114 0.76075L7.61664 0ZM8.39989 13.0475L8.23414 13.515C7.25806 16.3347 6.68316 19.3635 6.53764 22.4527L6.50514 23.766L6.50189 24.276C6.541 30.5834 8.37111 36.6468 11.6369 41.2887L12.2121 42.075L32.8919 69.1178L42.0861 57.0988L8.39989 13.0475Z" fill="#DB00FF"/>
</svg>
