<svg width="69" height="89" viewBox="0 0 69 89" fill="none" xmlns="http://www.w3.org/2000/svg">
<path d="M8.11029 0.983887L66.711 77.6199C67.6256 78.8153 68.1395 80.4367 68.1398 82.1276C68.1401 83.8185 67.6268 85.4403 66.7127 86.6363C65.7986 87.8322 64.5586 88.5043 63.2656 88.5047C61.9725 88.5051 60.7323 87.8337 59.8178 86.6384L44.8808 67.1011L33.3888 82.1249L19.9988 64.6149V75.7499C19.9988 76.8771 19.6564 77.9581 19.0469 78.7551C18.4374 79.5521 17.6107 79.9999 16.7488 79.9999C15.8868 79.9999 15.0602 79.5521 14.4507 78.7551C13.8412 77.9581 13.4988 76.8771 13.4988 75.7499V58.7499C13.4979 57.6666 13.1807 56.6247 12.612 55.8371C12.0434 55.0494 11.2662 54.5754 10.4393 54.5119C9.61232 54.4484 8.79806 54.8003 8.16284 55.4955C7.52761 56.1908 7.11938 57.177 7.02154 58.2526L6.99879 58.7499V62.9999C6.99879 64.1271 6.65638 65.2081 6.04689 66.0051C5.4374 66.8021 4.61075 67.2499 3.74879 67.2499C2.88684 67.2499 2.06019 66.8021 1.45069 66.0051C0.841201 65.2081 0.498792 64.1271 0.498792 62.9999V25.6594C0.363781 16.7892 2.89344 8.2033 7.54479 1.74464L8.11029 0.983887ZM8.89354 14.0314L8.72779 14.4989C7.75171 17.3186 7.17681 20.3473 7.03129 23.4366L6.99879 24.7499L6.99554 25.2599C7.03465 31.5673 8.86477 37.6307 12.1305 42.2726L12.7058 43.0589L33.3855 70.1016L42.5798 58.0826L8.89354 14.0314Z" fill="#00FFFF"/>
</svg>
