<svg width="70" height="70" viewBox="0 0 70 70" fill="none" xmlns="http://www.w3.org/2000/svg">
<path d="M39.4522 1.80643e-05C45.3 -0.00525766 51.0756 1.14512 56.3596 3.36758C61.6436 5.59005 66.3032 8.82878 70 12.8485L45.0307 35L70 57.1515C66.3032 61.1712 61.6436 64.41 56.3596 66.6324C51.0756 68.8549 45.3 70.0053 39.4522 70C17.6627 70 0 54.3305 0 35C0 15.6695 17.6627 1.80643e-05 39.4522 1.80643e-05ZM39.4522 10.5C37.8827 10.5 36.3774 11.0531 35.2676 12.0377C34.1578 13.0223 33.5344 14.3576 33.5344 15.75C33.5344 17.1424 34.1578 18.4778 35.2676 19.4623C36.3774 20.4469 37.8827 21 39.4522 21C41.0217 21 42.5269 20.4469 43.6367 19.4623C44.7465 18.4778 45.37 17.1424 45.37 15.75C45.37 14.3576 44.7465 13.0223 43.6367 12.0377C42.5269 11.0531 41.0217 10.5 39.4522 10.5Z" fill="#DB00FF"/>
</svg>
